<svg width="24" height="24" viewBox="0 0 24 24" fill="none" xmlns="http://www.w3.org/2000/svg">
<path d="M12.5999 18.0595C12.2399 18.3395 11.7299 18.3395 11.3699 18.0595L5.21993 13.2795C4.85993 12.9995 4.35993 12.9995 3.99993 13.2795C3.48993 13.6795 3.48993 14.4495 3.99993 14.8495L10.7599 20.1095C11.4799 20.6695 12.4899 20.6695 13.2199 20.1095L19.9799 14.8495C20.4899 14.4495 20.4899 13.6795 19.9799 13.2795L19.9699 13.2695C19.6099 12.9895 19.1099 12.9895 18.7499 13.2695L12.5999 18.0595ZM13.2299 15.0395L19.9899 9.77953C20.4999 9.37953 20.4999 8.59953 19.9899 8.19953L13.2299 2.93953C12.5099 2.37953 11.4999 2.37953 10.7699 2.93953L4.00993 8.20953C3.49993 8.60953 3.49993 9.38953 4.00993 9.78953L10.7699 15.0495C11.4899 15.6095 12.5099 15.6095 13.2299 15.0395Z" fill="#92A9B8"/>
</svg>
