<svg width="25" height="24" viewBox="0 0 25 24" fill="none" xmlns="http://www.w3.org/2000/svg">
<path d="M12.3233 2C6.80325 2 2.33325 6.48 2.33325 12C2.33325 17.52 6.80325 22 12.3233 22C17.8533 22 22.3333 17.52 22.3333 12C22.3333 6.48 17.8533 2 12.3233 2ZM12.3333 20C7.91325 20 4.33325 16.42 4.33325 12C4.33325 7.58 7.91325 4 12.3333 4C16.7533 4 20.3333 7.58 20.3333 12C20.3333 16.42 16.7533 20 12.3333 20ZM12.1133 7H12.0533C11.6533 7 11.3333 7.32 11.3333 7.72V12.44C11.3333 12.79 11.5133 13.12 11.8233 13.3L15.9733 15.79C16.3133 15.99 16.7533 15.89 16.9533 15.55C17.1633 15.21 17.0533 14.76 16.7033 14.56L12.8333 12.26V7.72C12.8333 7.32 12.5133 7 12.1133 7Z" fill="#92A9B8"/>
</svg>
