<svg width="960" height="960" viewBox="0 0 960 960" fill="none" xmlns="http://www.w3.org/2000/svg">
<path d="M0 480C0 214.903 214.903 0 480 0C745.097 0 960 214.903 960 480C960 745.097 745.097 960 480 960C214.903 960 0 745.097 0 480Z" fill="#0D1E29"/>
<path d="M582.204 543.968L576.572 507.335L570.947 470.706L590.913 487.327C615.432 449.505 616.823 396.235 590.516 351.306C587.927 346.781 585.058 342.405 581.896 338.317C580.46 336.134 578.448 333.657 576.147 331.026C561.636 313.969 543.824 301.429 524.588 293.997L553.27 258.947L536.737 238.236C577.663 252.064 614.148 280.351 638.008 321.051C675.956 385.82 671.711 464.199 633.428 522.905L656.99 542.734L619.522 543.345L582.204 543.968Z" fill="#DF1F26"/>
<path d="M295.602 442.917C286.22 370.383 318.887 295.778 384.455 256.024C417.309 236.006 453.906 227.652 489.509 229.668L488.91 205.586L512.331 232.274L535.75 258.965L513.528 285.404L491.297 311.835L490.704 287.024C463.858 284.565 436.017 290.281 411.048 305.479C365.141 333.394 341.924 384.931 347.707 435.285L301.48 427.145L295.602 442.917Z" fill="#1D65B1"/>
<path d="M320.493 515.427C316.756 509.009 313.448 502.59 310.433 495.879L288.622 509.616L298.786 475.169L308.951 440.714L342.688 447.548L376.431 454.376L354.906 467.818C357.35 473.365 360.082 478.76 363.243 484.157C401.912 549.949 483.034 573.091 544.296 535.97C548.886 533.19 553.191 530.122 557.207 526.905L567.568 561.049L600.157 563.07C592.552 569.644 584.228 575.635 575.336 581.044C487.391 634.678 373.245 605.289 320.493 515.427Z" fill="white"/>
<path d="M266.011 763.914L239.861 763.935L216.07 727.731L208.339 727.739L208.367 763.962L187.043 763.98L186.965 665.21L221.312 665.18C226.034 665.174 230.184 665.492 233.661 666.187C237.19 666.88 240.46 668.322 243.418 670.459C246.483 672.702 248.922 675.589 250.689 679.066C252.508 682.544 253.396 686.932 253.398 692.28C253.403 699.824 251.955 705.98 249.002 710.689C246.049 715.401 242.11 719.149 237.182 721.935L266.011 763.914ZM231.453 695.455C231.451 692.993 231.036 690.855 230.203 689.036C229.373 687.272 228.019 685.881 226.101 684.92C224.751 684.28 223.244 683.851 221.637 683.693C219.978 683.533 217.954 683.428 215.514 683.431L208.356 683.437L208.374 710.029L214.499 710.024C217.506 710.02 219.997 709.806 222.074 709.376C224.147 708.945 225.911 708.034 227.364 706.696C228.711 705.465 229.748 703.965 230.421 702.252C231.146 700.486 231.456 698.237 231.453 695.455Z" fill="white"/>
<path d="M347.527 763.845L326.675 763.863L293.404 695.028L293.46 763.89L273.655 763.905L273.576 665.134L300.138 665.114L327.692 721.699L327.647 665.094L347.451 665.074L347.527 763.845Z" fill="white"/>
<path d="M392.799 763.807C385.944 763.813 379.903 763.078 374.734 761.649C369.566 760.223 364.721 758.425 360.258 756.257L360.238 733.046L362.305 733.047C366.771 737.175 371.779 740.405 377.167 742.626C382.61 744.845 387.834 745.956 392.949 745.949C394.255 745.949 395.94 745.788 398.061 745.521C400.129 745.201 401.869 744.724 403.122 744.034C404.697 743.29 406.002 742.282 407.089 740.905C408.177 739.577 408.719 737.829 408.715 735.604C408.716 733.166 407.845 731.153 406.045 729.616C404.303 728.082 402.181 726.97 399.733 726.283C396.684 725.387 393.42 724.596 389.937 723.802C386.454 723.009 383.246 722.061 380.252 720.895C373.34 718.251 368.33 714.654 365.335 710.151C362.34 705.65 360.812 699.981 360.807 693.199C360.799 684.03 364.328 676.61 371.454 670.932C378.522 665.258 387.387 662.441 397.994 662.431C403.326 662.428 408.606 663.007 413.885 664.167C419.16 665.33 423.896 666.916 428.033 668.979L428.05 691.289L426.039 691.289C422.716 688.164 418.633 685.571 413.846 683.406C409.056 681.236 404.102 680.181 399.043 680.184C397.087 680.186 395.345 680.347 393.767 680.613C392.189 680.931 390.557 681.516 388.818 682.417C387.403 683.109 386.207 684.168 385.175 685.547C384.142 686.926 383.653 688.463 383.654 690.158C383.656 692.649 384.475 694.662 386.107 696.092C387.741 697.574 390.899 698.894 395.524 700.058C398.517 700.798 401.456 701.536 404.23 702.223C407.003 702.909 409.999 703.861 413.156 705.131C419.361 707.563 423.985 710.845 427.036 715.027C430.032 719.158 431.56 724.613 431.567 731.396C431.574 741.095 428.097 748.942 421.084 754.881C414.18 760.878 404.715 763.797 392.799 763.807Z" fill="white"/>
<path d="M475.492 763.744L446.796 664.995L473.061 664.973L487.951 729.683L488.763 729.681L505.663 664.947L527.079 664.928L544.08 729.781L544.895 729.781L559.728 664.902L585.944 664.879L557.454 763.675L534.551 763.692L516.786 703.809L516.018 703.807L498.346 763.722L475.492 763.744Z" fill="#DF1F26"/>
<path d="M595.843 763.643L595.764 664.869L664.329 664.813L664.345 684.199L619.547 684.237L619.562 704.495L660.856 704.46L660.871 723.896L619.58 723.93L619.594 744.234L664.393 744.196L664.41 763.583L595.843 763.643Z" fill="#DF1F26"/>
<path d="M679.296 763.578L679.216 664.806L720.221 664.772C727.585 664.765 733.745 665.807 738.71 667.891C743.704 669.979 747.451 672.901 749.95 676.659C752.484 680.421 753.75 684.775 753.755 689.727C753.759 693.489 752.977 696.851 751.412 699.809C749.842 702.736 747.685 705.165 744.934 707.095C742.183 709.028 738.997 710.38 735.381 711.157L735.381 712.12C739.352 712.312 743.018 713.385 746.381 715.342C749.776 717.302 752.498 720.032 754.549 723.534C756.601 727.004 757.627 731.12 757.631 735.879C757.637 741.183 756.297 745.926 753.611 750.109C750.925 754.257 747.036 757.541 741.951 759.958C736.862 762.341 730.684 763.535 723.42 763.542L679.296 763.578ZM703.048 744.314L717.739 744.302C722.891 744.298 726.685 743.313 729.113 741.35C731.581 739.387 732.808 736.653 732.806 733.149C732.804 730.608 732.211 728.424 731.026 726.591C729.84 724.727 728.158 723.297 725.98 722.304C723.8 721.276 721.194 720.763 718.15 720.767L703.028 720.779L703.048 744.314ZM703.014 705.395L716.173 705.382C718.765 705.381 721.068 704.945 723.084 704.075C725.103 703.205 726.668 701.95 727.789 700.308C728.936 698.669 729.514 696.692 729.512 694.377C729.51 691.064 728.339 688.463 725.999 686.566C723.661 684.671 720.508 683.724 716.539 683.728L702.997 683.741L703.014 705.395Z" fill="#DF1F26"/>
</svg>
