<svg width="77" height="75" viewBox="0 0 77 75" fill="none" xmlns="http://www.w3.org/2000/svg">
<path d="M52.1699 44.8788L51.4978 40.6566L50.8266 36.435L53.209 38.3507C56.1348 33.9915 56.3008 27.8517 53.1617 22.6734C52.8528 22.1519 52.5104 21.6476 52.1331 21.1764C51.9617 20.9248 51.7217 20.6392 51.4471 20.3361C49.7156 18.3702 47.59 16.9248 45.2948 16.0682L48.7173 12.0286L46.7445 9.64147C51.6279 11.2353 55.9816 14.4955 58.8287 19.1864C63.3569 26.6513 62.8504 35.685 58.2822 42.4512L61.0938 44.7366L56.6228 44.807L52.1699 44.8788Z" fill="#DF1F26"/>
<path d="M17.9707 33.2318C16.8512 24.8719 20.7493 16.2732 28.5732 11.6913C32.4935 9.38412 36.8606 8.42126 41.1089 8.65367L41.0375 5.87806L43.8322 8.954L46.6266 12.0303L43.975 15.0775L41.3222 18.1238L41.2515 15.2643C38.0481 14.9808 34.7259 15.6397 31.7465 17.3913C26.2685 20.6087 23.4982 26.5486 24.1882 32.3521L18.6721 31.414L17.9707 33.2318Z" fill="#1D65B1"/>
<path d="M20.9409 41.5888C20.4949 40.8492 20.1002 40.1093 19.7404 39.3359L17.1378 40.9192L18.3507 36.9489L19.5636 32.9778L23.5893 33.7654L27.6157 34.5524L25.0471 36.1017C25.3388 36.7409 25.6648 37.3628 26.042 37.9848C30.6562 45.5678 40.3362 48.2349 47.6464 43.9566C48.1941 43.6361 48.7078 43.2825 49.187 42.9118L50.4233 46.8471L54.3121 47.08C53.4046 47.8377 52.4113 48.5283 51.3502 49.1516C40.8561 55.3333 27.2355 51.946 20.9409 41.5888Z" fill="white"/>
<path d="M14.4397 70.2289L11.3193 70.2313L8.48044 66.0586L7.55792 66.0595L7.56128 70.2344L5.0167 70.2364L5.00745 58.8527L9.10597 58.8492C9.66945 58.8486 10.1646 58.8852 10.5795 58.9653C11.0006 59.0452 11.3907 59.2114 11.7438 59.4577C12.1095 59.7162 12.4005 60.049 12.6114 60.4497C12.8285 60.8506 12.9344 61.3562 12.9346 61.9727C12.9353 62.8422 12.7625 63.5516 12.4101 64.0944C12.0577 64.6375 11.5877 65.0695 10.9996 65.3906L14.4397 70.2289ZM10.316 62.3386C10.3157 62.0549 10.2663 61.8085 10.1668 61.5988C10.0679 61.3955 9.90629 61.2351 9.67736 61.1244C9.51628 61.0506 9.33652 61.0012 9.14471 60.983C8.94674 60.9645 8.70527 60.9524 8.41404 60.9527L7.5599 60.9534L7.56212 64.0183L8.29294 64.0178C8.6518 64.0173 8.94897 63.9927 9.19687 63.9431C9.44418 63.8934 9.65473 63.7883 9.82816 63.6342C9.98879 63.4923 10.1126 63.3194 10.1928 63.122C10.2794 62.9184 10.3164 62.6592 10.316 62.3386Z" fill="white"/>
<path d="M24.1667 70.2208L21.6785 70.2228L17.7084 62.2892L17.7151 70.2259L15.3519 70.2277L15.3424 58.8438L18.512 58.8414L21.7999 65.3632L21.7946 58.8391L24.1577 58.8368L24.1667 70.2208Z" fill="white"/>
<path d="M29.5688 70.2163C28.7509 70.2169 28.03 70.1322 27.4132 69.9675C26.7966 69.8032 26.2184 69.5959 25.6858 69.3461L25.6835 66.6709L25.9301 66.6709C26.4631 67.1468 27.0606 67.519 27.7036 67.775C28.353 68.0308 28.9764 68.1589 29.5867 68.158C29.7426 68.158 29.9437 68.1394 30.1967 68.1087C30.4435 68.0718 30.6511 68.0168 30.8006 67.9373C30.9886 67.8515 31.1444 67.7353 31.274 67.5767C31.4038 67.4236 31.4685 67.2221 31.4681 66.9657C31.4682 66.6847 31.3642 66.4527 31.1495 66.2755C30.9416 66.0987 30.6884 65.9705 30.3962 65.8914C30.0324 65.7881 29.6429 65.6969 29.2273 65.6054C28.8117 65.514 28.4289 65.4047 28.0717 65.2704C27.2469 64.9657 26.6491 64.551 26.2917 64.032C25.9343 63.5133 25.752 62.86 25.7514 62.0783C25.7504 61.0215 26.1715 60.1662 27.0218 59.5119C27.8652 58.8579 28.923 58.5333 30.1888 58.5321C30.825 58.5317 31.455 58.5984 32.085 58.7322C32.7145 58.8662 33.2795 59.049 33.7731 59.2867L33.7752 61.8581L33.5352 61.8581C33.1387 61.4979 32.6515 61.1991 32.0803 60.9496C31.5087 60.6995 30.9176 60.5779 30.314 60.5782C30.0805 60.5784 29.8727 60.597 29.6844 60.6276C29.4961 60.6643 29.3014 60.7317 29.0938 60.8356C28.925 60.9153 28.7823 61.0374 28.6591 61.1963C28.5358 61.3552 28.4775 61.5324 28.4776 61.7278C28.4779 62.0149 28.5756 62.2469 28.7704 62.4117C28.9652 62.5825 29.3422 62.7347 29.894 62.8688C30.2512 62.9541 30.6018 63.0392 30.9328 63.1183C31.2638 63.1974 31.6213 63.3071 31.9979 63.4535C32.7384 63.7338 33.2902 64.1121 33.6542 64.5941C34.0117 65.0701 34.194 65.6989 34.1949 66.4807C34.1957 67.5985 33.7808 68.5029 32.944 69.1875C32.1202 69.8786 30.9907 70.2151 29.5688 70.2163Z" fill="white"/>
<path d="M39.4362 70.2087L36.0121 58.8274L39.1462 58.8248L40.9229 66.2831L41.0198 66.2828L43.0364 58.8218L45.592 58.8197L47.6206 66.2943L47.7179 66.2944L49.4879 58.8166L52.6161 58.814L49.2165 70.2007L46.4836 70.2028L44.3637 63.3009L44.2721 63.3007L42.1634 70.2062L39.4362 70.2087Z" fill="#DF1F26"/>
<path d="M53.7973 70.197L53.788 58.8127L61.9696 58.8063L61.9714 61.0406L56.6258 61.045L56.6277 63.3798L61.5551 63.3758L61.5569 65.6159L56.6298 65.6199L56.6315 67.96L61.9771 67.9556L61.9792 70.1901L53.7973 70.197Z" fill="#DF1F26"/>
<path d="M63.7554 70.19L63.7459 58.806L68.6388 58.8021C69.5175 58.8013 70.2526 58.9214 70.845 59.1615C71.441 59.4022 71.888 59.739 72.1863 60.1721C72.4886 60.6057 72.6397 61.1075 72.6403 61.6783C72.6408 62.1118 72.5475 62.4994 72.3607 62.8403C72.1734 63.1776 71.916 63.4577 71.5877 63.68C71.2595 63.9028 70.8793 64.0586 70.4478 64.1482L70.4478 64.2592C70.9217 64.2813 71.3591 64.4049 71.7604 64.6306C72.1655 64.8565 72.4904 65.1711 72.735 65.5747C72.9799 65.9747 73.1024 66.449 73.1029 66.9976C73.1035 67.6089 72.9436 68.1556 72.6231 68.6376C72.3026 69.1158 71.8386 69.4942 71.2317 69.7728C70.6246 70.0474 69.8874 70.1851 69.0206 70.1859L63.7554 70.19ZM66.5896 67.9697L68.3426 67.9684C68.9574 67.9679 69.4102 67.8544 69.6999 67.6281C69.9943 67.4019 70.1408 67.0867 70.1405 66.6829C70.1403 66.39 70.0695 66.1383 69.9281 65.9271C69.7866 65.7123 69.5859 65.5475 69.326 65.4329C69.0659 65.3145 68.7549 65.2553 68.3918 65.2558L66.5873 65.2572L66.5896 67.9697ZM66.5856 63.4841L68.1557 63.4827C68.465 63.4825 68.7399 63.4322 68.9805 63.3319C69.2214 63.2316 69.4081 63.0871 69.5418 62.8978C69.6788 62.7088 69.7478 62.481 69.7475 62.2142C69.7472 61.8323 69.6075 61.5326 69.3283 61.3139C69.0494 61.0955 68.673 60.9864 68.1995 60.9869L66.5835 60.9884L66.5856 63.4841Z" fill="#DF1F26"/>
</svg>
