<svg width="16" height="16" viewBox="0 0 16 16" fill="none" xmlns="http://www.w3.org/2000/svg">
<path d="M11 4.49977V11.5531C11 12.9464 9.97996 14.1864 8.59329 14.3198C6.99996 14.4731 5.66663 13.2264 5.66663 11.6664V3.42644C5.66663 2.55311 6.29329 1.75977 7.15996 1.67311C8.15996 1.57311 8.99996 2.35311 8.99996 3.33311V10.3331C8.99996 10.6998 8.69996 10.9998 8.33329 10.9998C7.96663 10.9998 7.66663 10.6998 7.66663 10.3331V4.49977C7.66663 4.22644 7.43996 3.99977 7.16663 3.99977C6.89329 3.99977 6.66663 4.22644 6.66663 4.49977V10.2398C6.66663 11.1131 7.29329 11.9064 8.15996 11.9931C9.15996 12.0931 9.99996 11.3131 9.99996 10.3331V3.44644C9.99996 2.05311 8.97996 0.813105 7.59329 0.679772C6.00663 0.526438 4.66663 1.77311 4.66663 3.33311V11.5131C4.66663 13.4264 6.06663 15.1398 7.97329 15.3198C10.1666 15.5198 12 13.8131 12 11.6664V4.49977C12 4.22644 11.7733 3.99977 11.5 3.99977C11.2266 3.99977 11 4.22644 11 4.49977Z" fill="#49606F"/>
</svg>
