<svg width="141" height="163" viewBox="0 0 141 163" fill="none" xmlns="http://www.w3.org/2000/svg">
<g opacity="0.6" clip-path="url(#clip0_20_52941)">
<path d="M23.5254 151.847C23.9878 157.502 28.716 161.866 34.4094 161.866H97.4357C116.73 161.866 133.139 149.924 139.203 133.261C139.399 132.731 139.578 132.196 139.746 131.66C139.752 131.649 139.752 131.637 139.758 131.626C140.243 129.656 139.839 128.136 138.284 127.198C138.122 127.117 137.96 127.031 137.804 126.939C125.845 120.306 119.452 98.489 123.18 82.7239C123.18 82.7182 123.18 82.7182 123.18 82.7182C123.359 81.9697 123.556 81.2327 123.781 80.5129C124.712 76.753 125.203 72.8261 125.203 68.7899C125.203 59.1915 122.423 50.2207 117.597 42.5972H117.591C109.932 30.4999 97.1351 21.7882 82.1415 19.3008C84.5576 16.9113 85.4651 10.6698 80.7774 9.23605C77.4481 8.64874 74.8933 10.3588 73.9106 15.0112C71.3327 10.3704 65.1711 13.4854 69.5871 18.702C42.6807 20.5561 21.4446 42.269 21.4446 68.7899C21.4446 75.1408 22.6642 81.2096 24.8837 86.8005C28.9472 100.832 21.4099 125.983 23.5254 151.847Z" fill="#25343E"/>
<g opacity="0.55">
<path d="M83.5053 19.548C83.1643 20.3771 82.6961 21.1141 82.147 21.6554C106.21 25.6456 124.613 45.6658 125.197 69.9583C125.209 69.5725 125.215 69.1867 125.215 68.7952C125.209 44.4278 107.285 24.1198 83.5053 19.548Z" fill="white"/>
</g>
<g opacity="0.3">
<path d="M93.9268 161.861H97.4353C116.729 161.861 133.139 149.919 139.202 133.255C139.399 132.726 139.578 132.19 139.746 131.655C139.751 131.643 139.751 131.632 139.757 131.62C140.243 129.651 139.838 128.131 138.283 127.192C138.121 127.112 137.96 127.025 137.804 126.933C125.845 120.3 119.452 98.4835 123.18 82.7184C123.18 82.7127 123.18 82.7127 123.18 82.7127C123.359 81.9641 123.556 81.2271 123.781 80.5074C124.712 76.7475 125.203 72.8206 125.203 68.7843C125.203 59.1859 122.423 50.2152 117.596 42.5917H117.591C117.591 42.5917 124.082 63.1646 111.417 82.4651C108.793 86.4611 107.007 90.9465 107.088 95.7197C107.389 112.993 116.88 123.006 130.174 130.019C126.342 139.468 118.382 145.151 106.29 147.069L94.3892 161.469C94.4007 161.469 94.2215 161.613 93.9268 161.861Z" fill="#0D325A"/>
</g>
<g opacity="0.55">
<path d="M73.9152 17.3663C74.8978 12.714 77.4526 11.0039 80.782 11.5912C82.753 12.1957 83.7356 13.6525 84.0304 15.3165C84.4235 12.8118 83.6605 10.1229 80.782 9.24195C77.4526 8.65465 74.8978 10.3647 73.9152 15.0171C71.7246 11.073 66.9502 12.7312 68.268 16.5199C69.1351 14.6025 72.2621 14.3837 73.9152 17.3663Z" fill="white"/>
</g>
<g opacity="0.55">
<path d="M21.4446 68.7901C21.4446 69.1759 21.4504 69.5559 21.4619 69.9359C22.092 43.9621 43.0911 22.871 69.6045 21.0515C68.9224 20.2454 68.4947 19.4968 68.2635 18.8116C41.9813 21.2818 21.4446 42.7126 21.4446 68.7901Z" fill="white"/>
</g>
<g opacity="0.55">
<path d="M26.096 98.6672C26.1596 94.1703 25.8533 90.1685 24.8764 86.8059C22.7956 81.5662 21.5933 75.9005 21.4546 69.9814C21.443 70.3672 21.4373 70.7587 21.4373 71.1445C21.4373 77.4954 22.6569 83.5642 24.8764 89.1551C25.6799 91.9189 26.0324 95.1146 26.096 98.6672Z" fill="white"/>
</g>
<path d="M24.6228 124.296C20.9351 138.201 35.5357 154.254 60.3497 152.608C105.354 144.973 95.5332 111.398 73.5168 109.809C52.3674 107.31 48.7548 94.2686 59.9566 92.8522C78.0426 92.8522 86.2388 84.6242 88.9959 71.8532C91.0536 42.7816 60.3959 33.972 49.1941 46.4494C43.8879 39.252 32.2352 38.1292 25.9638 48.2631C25.9638 48.2631 17.8139 63.2739 23.5882 83.1156C27.0678 94.6256 26.6227 108.911 24.6228 124.296Z" fill="#92A9B8"/>
<path d="M56.9742 152.866C45.1943 152.866 34.8422 148.709 28.8309 141.449C24.5478 136.272 22.9583 130.013 24.4784 124.273C26.8136 106.279 26.4899 93.2205 23.4496 83.1672C17.7215 63.4925 25.7558 48.355 25.8368 48.2053C28.7037 43.576 32.9001 40.9216 37.6629 40.7316C42.154 40.5531 46.4602 42.6029 49.2057 46.2303C54.4136 40.5703 64.0953 39.1769 72.8291 42.8562C77.8751 44.9809 82.0599 48.5277 84.9326 53.1168C88.233 58.3852 89.6492 64.6959 89.1347 71.8702C86.0713 86.0979 76.5225 93.0016 59.951 93.0016C56.1477 93.4853 53.8703 95.3566 53.8819 98.0168C53.8992 102.658 60.6561 108.156 73.5284 109.676C83.7188 110.414 91.7473 118.048 92.204 127.434C92.3889 131.251 91.3543 136.946 85.3661 142.358C79.8056 147.391 71.3956 150.891 60.3671 152.763C59.2285 152.826 58.0956 152.866 56.9742 152.866ZM38.212 41.0022C38.0328 41.0022 37.8536 41.0079 37.6744 41.0137C33.0099 41.2037 28.8944 43.8063 26.0911 48.3435C26.0159 48.4874 18.0394 63.527 23.7328 83.0808C26.7847 93.1744 27.1142 106.279 24.7732 124.319L24.7674 124.336C23.2704 129.985 24.8368 136.157 29.0621 141.264C35.5878 149.147 47.281 153.339 60.3382 152.469C71.2915 150.609 79.6554 147.132 85.1754 142.139C91.0769 136.796 92.0999 131.199 91.915 127.44C91.4699 118.198 83.5569 110.684 73.5053 109.953C60.4596 108.416 53.616 102.779 53.5986 98.0053C53.5871 95.1896 55.9569 93.2089 59.9394 92.7022C76.3723 92.7022 85.8227 85.8734 88.8515 71.8184C89.7937 58.5062 83.765 47.7677 72.7192 43.1153C64.0317 39.4533 54.4021 40.864 49.304 46.547L49.1826 46.6795L49.0786 46.5355C46.5007 43.0462 42.4719 41.0022 38.212 41.0022Z" fill="#0D325A"/>
<g opacity="0.55">
<path d="M54.0616 99.7495C55.287 101.92 57.8707 104.143 61.8821 105.876C54.5702 101.108 55.2292 94.5731 62.9745 93.5885C81.0547 93.5943 89.2567 85.3605 92.0138 72.5895C93.0831 57.5269 85.3667 47.8997 76.1243 43.8634C80.3322 46.5178 83.9621 50.4677 86.199 55.6959C88.3319 60.1064 89.4474 65.4901 88.9908 71.8468C86.2395 84.612 78.0375 92.8458 59.9515 92.8458C54.9402 93.4849 52.894 96.4445 54.0616 99.7495Z" fill="white"/>
</g>
<g opacity="0.55">
<path d="M38.9634 148.07C45.1076 151.83 53.4194 154.012 63.367 153.356C103.568 146.539 100.024 119.022 83.1176 112.089C96.7703 121.129 97.0361 145.168 59.8296 151.485C51.6738 152.014 44.6221 150.65 38.9634 148.07Z" fill="white"/>
</g>
<path d="M97.4403 162.902H34.414C28.2293 162.902 22.9867 158.083 22.4838 151.928C21.4608 139.399 22.6804 127.019 23.7612 116.091C24.923 104.362 25.923 94.2282 23.8884 87.1344C21.5706 81.2844 20.3972 75.112 20.3972 68.7898C20.3972 55.7367 25.4664 43.2996 34.6741 33.7703C43.4136 24.7247 55.0894 19.105 67.7248 17.8152C66.9444 16.37 66.7884 14.9478 67.3086 13.7675C67.8404 12.5583 69.0253 11.7695 70.4067 11.7061C71.5165 11.6543 72.58 12.0516 73.4702 12.8116C74.817 9.25327 77.47 7.595 80.967 8.21109C81.0075 8.21685 81.0479 8.22836 81.0884 8.23988C83.0883 8.85022 84.464 10.3012 84.9668 12.328C85.4581 14.3202 85.042 16.7443 83.99 18.581C95.4866 20.8612 105.96 26.8551 113.63 35.5726C121.769 44.8255 126.254 56.6234 126.254 68.7956C126.254 72.8434 125.763 76.8739 124.798 80.7662C124.792 80.7835 124.786 80.8065 124.78 80.8238C124.572 81.4975 124.381 82.1999 124.208 82.9139C124.202 82.9312 124.202 82.9485 124.196 82.9657C120.41 98.9784 127.266 119.908 138.311 126.029C138.468 126.115 138.612 126.196 138.757 126.271C138.78 126.282 138.803 126.294 138.826 126.305C140.144 127.1 141.548 128.706 140.78 131.862C140.768 131.908 140.756 131.954 140.745 131.994C140.577 132.524 140.392 133.071 140.19 133.618C133.815 151.133 116.636 162.902 97.4403 162.902ZM70.5917 13.7905C70.5628 13.7905 70.5339 13.7905 70.4992 13.7905C69.9096 13.8193 69.4299 14.1244 69.2218 14.6023C68.8519 15.443 69.2912 16.727 70.3952 18.0283C70.6495 18.3277 70.7131 18.748 70.557 19.105C70.4009 19.4678 70.0599 19.7096 69.6669 19.7384C43.2113 21.5579 22.4896 43.0981 22.4896 68.7841C22.4896 74.8586 23.6225 80.7893 25.8536 86.409C25.8652 86.4377 25.8768 86.4723 25.8883 86.5011C28.0559 93.9806 27.0328 104.316 25.8479 116.287C24.7785 127.123 23.5589 139.41 24.5705 151.749C24.9866 156.828 29.3101 160.807 34.414 160.807H97.4403C115.757 160.807 132.144 149.584 138.225 132.887C138.415 132.368 138.589 131.85 138.751 131.349C139.248 129.317 138.502 128.539 137.78 128.096C137.612 128.01 137.45 127.923 137.288 127.831C131.393 124.561 126.532 117.715 123.618 108.56C120.844 99.8479 120.312 90.3589 122.156 82.5166C122.162 82.4993 122.162 82.4821 122.168 82.4648C122.347 81.699 122.555 80.939 122.78 80.2192C123.699 76.4939 124.168 72.6418 124.168 68.7725C124.168 44.7449 106.423 24.362 81.9785 20.3084C81.5912 20.2451 81.2733 19.9687 81.152 19.5944C81.0306 19.2202 81.1346 18.8114 81.4121 18.535C82.5507 17.4122 83.4582 14.896 82.938 12.8001C82.6143 11.4988 81.8109 10.6352 80.5393 10.2264C77.6261 9.74269 75.7418 11.4125 74.9441 15.2012C74.8516 15.6272 74.5048 15.9554 74.0771 16.0188C73.6436 16.0821 73.2159 15.8748 73.0078 15.4948C72.3951 14.4296 71.4992 13.7905 70.5917 13.7905Z" fill="#0D325A"/>
<path d="M18.4557 140.596C22.5134 142.237 26.5941 142.34 30.7038 143.262C33.6748 143.93 36.6515 144.408 39.6456 144.707C49.8938 145.738 60.298 144.644 70.8293 141.615C76.6325 142.864 83.0947 144.77 77.1239 134.239C79.8925 126.598 81.8057 119.015 80.696 111.605V111.599C78.5169 110.626 76.095 109.998 73.5113 109.808C63.766 108.657 57.7431 105.271 55.1768 101.811C55.1768 101.805 55.1768 101.805 55.1768 101.805C52.1769 97.7571 53.9109 93.6115 59.9511 92.8457C67.1474 92.8457 72.7772 91.5444 77.1239 89.1664C77.1123 78.9058 72.6847 79.9365 66.211 86.2068C57.5062 83.5582 47.4661 83.1897 36.6342 84.18C33.5823 84.4564 30.4668 84.8422 27.2993 85.3143C25.9757 84.4794 24.7329 83.7367 23.5885 83.1148C20.9065 81.6638 18.7852 80.8923 17.5078 81.1629L17.2708 81.2262L17.265 81.232C15.7391 81.7675 15.716 84.1397 17.8662 89.1664C11.352 98.736 11.5427 114.633 13.0051 131.74C7.54868 139.761 10.2075 144.315 18.4557 140.596Z" fill="white"/>
<path d="M56.9402 153.764C46.0389 153.764 36.3456 150.287 29.9644 143.999C29.554 143.596 29.5482 142.934 29.9586 142.525C30.3632 142.116 31.0279 142.11 31.4383 142.519C38.0508 149.037 48.5417 152.331 60.2233 151.571C86.0083 147.177 90.2741 135.149 90.9099 130.18C91.8405 122.902 87.5632 115.82 80.2745 112.555C80.2514 112.544 80.234 112.532 80.2109 112.526C78.0896 111.588 75.8122 111.024 73.4424 110.851C73.425 110.851 73.4135 110.851 73.3961 110.845C59.836 109.244 52.7207 103.181 52.6976 98.0107C52.686 94.746 55.4142 92.3737 59.8244 91.8152C59.8707 91.8095 59.9111 91.8095 59.9574 91.8095C66.7086 91.8095 72.3153 90.6176 76.6272 88.2569C82.5287 85.0324 86.2338 79.62 87.9562 71.7087C88.8464 58.811 83.0258 48.4353 72.3673 43.9442C64.0324 40.4319 54.8246 41.7504 49.9751 47.1456C49.7671 47.3816 49.4607 47.5083 49.1428 47.491C48.8249 47.4738 48.5359 47.3183 48.3509 47.0649C45.8424 43.6678 41.8656 41.7389 37.7097 41.9059C33.3573 42.0844 29.502 44.5315 26.8547 48.8096C26.5541 49.299 25.9068 49.4545 25.4154 49.1493C24.9241 48.8499 24.7681 48.205 25.0744 47.7156C28.0974 42.8329 32.5539 40.0288 37.6288 39.8215C42.0737 39.643 46.3394 41.5143 49.27 44.8712C51.9404 42.3204 55.5009 40.6794 59.6453 40.1094C64.0208 39.5048 68.8241 40.1843 73.1823 42.021C78.4017 44.2205 82.731 47.8883 85.6962 52.6328C89.1007 58.0683 90.5573 64.5574 90.0371 71.9275C90.0313 71.9736 90.0255 72.0254 90.014 72.0714C88.1643 80.6507 84.1125 86.5468 77.6272 90.0821C73.0204 92.5983 67.0958 93.8823 60.021 93.8881C56.7321 94.3199 54.7784 95.8573 54.7842 97.9992C54.7957 101.304 59.9227 107.143 73.61 108.766C76.24 108.962 78.7659 109.59 81.1241 110.644C81.1473 110.655 81.1704 110.667 81.1935 110.678C89.2914 114.334 94.0311 122.269 92.9849 130.439C92.2913 135.875 87.7366 149.014 60.5238 153.632C60.4892 153.638 60.4545 153.643 60.4198 153.643C59.2464 153.724 58.0846 153.764 56.9402 153.764Z" fill="#0D325A"/>
<path d="M47.4425 146.17C37.9805 146.17 28.819 144.339 19.5651 140.665C14.0104 144.385 11.3978 143.222 10.3227 142.174C8.29964 140.193 8.92967 136.013 11.9238 131.47C10.5597 115.308 10.2302 99.059 16.6808 89.0633C14.8138 84.5376 14.6404 81.9523 16.1143 80.7086C17.8657 79.2288 21.1835 80.248 27.5301 84.2324C43.6392 81.8544 55.8757 82.1135 65.9273 85.0385C70.0312 81.1635 72.9617 79.7873 75.1293 80.6971C77.1985 81.5665 78.1638 84.2612 78.1696 89.1727C78.1696 89.7485 77.7014 90.2149 77.1234 90.2149C76.5454 90.2149 76.0772 89.7485 76.0772 89.1727C76.0714 84.1115 74.9732 82.8908 74.3143 82.6202C73.5629 82.3035 71.6034 82.4475 66.9388 86.9617C66.6672 87.2265 66.2684 87.3244 65.9042 87.2092C55.974 84.1864 43.7548 83.9157 27.4549 86.3513C27.2064 86.3859 26.952 86.334 26.7382 86.2016C19.1894 81.4168 17.6923 82.1135 17.4727 82.2978C17.3686 82.3841 16.5074 83.3227 18.831 88.7639C18.9697 89.0921 18.935 89.4663 18.7327 89.76C12.2764 99.2432 12.6636 115.504 14.0451 131.654C14.0682 131.89 14.0046 132.132 13.8717 132.328C11.1203 136.382 10.7504 139.658 11.7966 140.688C12.5827 141.46 14.9005 141.385 18.8368 138.639C19.1258 138.437 19.5015 138.391 19.831 138.529C36.2638 145.18 52.3787 145.842 70.5399 140.619C70.7075 140.573 70.8809 140.568 71.0485 140.602C71.3433 140.665 71.6381 140.729 71.9329 140.792C74.3432 141.322 77.6378 142.047 78.291 141.161C78.4991 140.884 78.9557 139.6 76.2101 134.752C76.0599 134.487 76.031 134.171 76.135 133.883C78.528 127.284 80.8169 119.499 79.6551 111.755C79.5684 111.185 79.9614 110.655 80.5337 110.569C81.1059 110.483 81.6377 110.874 81.7244 111.444C82.9324 119.505 80.551 127.762 78.2621 134.142C80.5741 138.316 81.1001 140.873 79.9672 142.399C78.5048 144.368 75.0888 143.619 71.4705 142.825C71.2624 142.779 71.0601 142.733 70.852 142.692C62.7309 145.007 54.9914 146.17 47.4425 146.17Z" fill="#0D325A"/>
<path d="M64.5467 69.5332C64.5178 70.6963 64.0034 71.8306 63.119 72.7289C62.9109 72.9649 62.6393 73.1434 62.3849 73.345C62.2636 73.4486 62.1075 73.5177 61.9688 73.5983L61.5295 73.8286C61.2174 73.9553 60.8937 74.0589 60.5642 74.1396C60.3966 74.1683 60.2232 74.1914 60.0555 74.2144C59.8821 74.2317 59.7145 74.2662 59.5411 74.249C59.3677 74.2432 59.1943 74.2374 59.0209 74.2259C58.9342 74.2202 58.8475 74.2202 58.7608 74.2029L58.5065 74.1511C58.1655 74.0762 57.8302 73.9956 57.5296 73.8401L57.0672 73.6271C56.9227 73.5407 56.7898 73.4429 56.6511 73.3507C56.5181 73.2528 56.3794 73.1665 56.2522 73.0628L55.9112 72.7231C55.0384 71.8019 54.5587 70.6733 54.5124 69.5275C54.5009 69.2626 54.7089 69.0381 54.9748 69.0266C55.0847 69.0208 55.1887 69.0553 55.2754 69.1129L55.3043 69.1302C56.1771 69.752 56.888 70.2703 57.5874 70.5812C58.2811 70.9036 58.8937 71.0188 59.4949 71.013C60.1018 71.013 60.7434 70.8518 61.4428 70.5351C62.1537 70.2184 62.8705 69.7348 63.749 69.1244L63.7722 69.1072C63.9918 68.9517 64.2981 69.0093 64.4542 69.2281C64.5178 69.3317 64.5467 69.4354 64.5467 69.5332Z" fill="#0D325A"/>
<path d="M29.6979 69.417C30.4435 69.9352 31.062 70.3498 31.6631 70.6204C32.2643 70.891 32.8076 71.0235 33.322 71.0235C33.8365 71.0292 34.3624 70.9256 34.9462 70.6549C35.5416 70.3901 36.1485 69.9467 36.8884 69.417L36.9115 69.3997C37.0964 69.2673 37.3565 69.3134 37.4837 69.4976C37.5415 69.5725 37.5646 69.6646 37.5588 69.751C37.5184 70.724 37.1138 71.6856 36.3681 72.4744L36.0791 72.7623C35.9751 72.8487 35.8537 72.9293 35.7439 73.0099C35.6283 73.0905 35.5127 73.1711 35.3913 73.246L34.9983 73.4245C34.7381 73.5569 34.4491 73.6203 34.1659 73.6894C34.0214 73.7297 33.8769 73.7527 33.7324 73.7527L33.2873 73.7757C33.1371 73.793 32.9926 73.7584 32.8481 73.7469L32.4145 73.6836C32.1371 73.6087 31.8597 73.5224 31.5938 73.4187L31.2181 73.223C31.0967 73.1539 30.9637 73.0963 30.8597 73.0042C30.6458 72.8314 30.4146 72.6817 30.2354 72.4802C29.484 71.7144 29.0447 70.7471 29.0216 69.7567C29.0158 69.5264 29.195 69.3364 29.4262 69.3306C29.5187 69.3306 29.6054 69.3537 29.6748 69.4055L29.6979 69.417Z" fill="#0D325A"/>
<path d="M12.4612 107.408C8.43243 100.959 10.7503 91.0156 16.6575 91.1596C18.5014 94.1134 21.5013 95.9847 25.2236 97.1766C27.8941 98.0345 28.4894 101.564 26.2005 103.182C22.6631 105.681 17.9754 106.976 12.4612 107.408Z" fill="#25343E"/>
<g opacity="0.55">
<path d="M10.5135 101.442C10.9124 97.2622 13.1493 93.7902 16.6578 93.8766C18.4959 96.8361 21.4957 98.7017 25.2239 99.8936C26.2528 100.222 26.9695 100.953 27.3336 101.811C28.1024 100.078 27.2758 97.838 25.2239 97.1816C21.5015 95.9897 18.5016 94.1242 16.6578 91.1646C12.4094 91.0552 10.0164 96.1624 10.5135 101.442Z" fill="white"/>
</g>
<path d="M12.4621 108.45C12.1037 108.45 11.7627 108.266 11.5719 107.96C8.90731 103.694 8.64721 97.6827 10.9593 93.6637C12.3002 91.3202 14.3348 90.065 16.6816 90.1226C17.0341 90.1341 17.3578 90.3183 17.5428 90.6177C19.1208 93.1512 21.7334 94.9707 25.5367 96.1914C27.1667 96.7153 28.34 98.0857 28.6059 99.7728C28.866 101.437 28.1724 103.072 26.8025 104.039C23.2709 106.538 18.6063 107.984 12.543 108.456C12.5141 108.45 12.491 108.45 12.4621 108.45ZM16.1036 92.2242C14.4331 92.4084 13.3811 93.6406 12.7742 94.6943C11.2136 97.412 10.8263 102.312 13.0285 106.314C18.3809 105.824 22.4964 104.517 25.5887 102.329C26.3228 101.811 26.6754 100.97 26.5366 100.078C26.3921 99.1624 25.7795 98.4485 24.8951 98.1606C20.8606 96.8708 17.9763 94.9246 16.1036 92.2242Z" fill="#0D325A"/>
<path d="M42.5525 75.8252C45.7085 76.234 48.165 77.829 50.1245 80.2703C51.2053 81.6119 50.8932 83.6099 49.4135 84.4909C47.3731 85.7115 45.0264 86.27 42.3965 86.1952C39.3157 85.8382 36.8302 84.796 35.1944 82.7635C34.6742 82.1186 34.5933 81.2146 35.0037 80.4949C36.2406 78.3529 38.2001 76.7983 41.0497 75.9462C41.5352 75.808 42.0496 75.7619 42.5525 75.8252Z" fill="#EE89FF"/>
<path d="M42.8587 86.3566C42.7027 86.3566 42.5524 86.3566 42.3963 86.3509C39.0496 85.9651 36.6624 84.825 35.0845 82.8674C34.5238 82.1706 34.4429 81.1918 34.8822 80.4318C36.1654 78.2035 38.2289 76.6488 41.0091 75.8139C41.512 75.6642 42.0553 75.6182 42.5697 75.6815C45.6158 76.073 48.1244 77.5471 50.2399 80.1842C50.7948 80.8751 51.0202 81.7618 50.8642 82.6255C50.7139 83.4604 50.211 84.1859 49.4885 84.6178C47.5637 85.7693 45.3326 86.3566 42.8587 86.3566ZM42.1015 75.9464C41.7605 75.9464 41.4195 75.9982 41.0958 76.0961C38.3907 76.9079 36.385 78.4165 35.1365 80.5815C34.755 81.2379 34.8301 82.0843 35.3099 82.6889C36.8358 84.5832 39.1594 85.6887 42.4137 86.063C45.0089 86.1378 47.3441 85.5678 49.3382 84.3759C50.0029 83.9786 50.4422 83.3395 50.5809 82.5795C50.7197 81.7964 50.5174 80.996 50.0145 80.3684C47.951 77.7947 45.5002 76.3552 42.535 75.9752C42.3905 75.9521 42.246 75.9464 42.1015 75.9464Z" fill="#0D325A"/>
<g opacity="0.55">
<path d="M35.1952 82.7755C35.2819 82.8792 35.3686 82.9828 35.4553 83.0807C35.49 82.9771 35.5362 82.8792 35.594 82.7813C36.8309 80.6394 38.7904 79.0847 41.64 78.2268C42.1255 78.0829 42.64 78.0368 43.1428 78.1059C46.2988 78.5089 48.7553 80.1096 50.7148 82.551C50.7205 82.5567 50.7263 82.5625 50.7263 82.5682C50.8535 81.7909 50.6685 80.9503 50.1252 80.2766C48.1657 77.8353 45.7034 76.2346 42.5533 75.8315C42.0504 75.7682 41.536 75.8085 41.0504 75.9524C38.2066 76.8046 36.2414 78.365 35.0044 80.5069C34.594 81.2209 34.675 82.1249 35.1952 82.7755Z" fill="white"/>
</g>
<path d="M42.8592 87.2493C42.6973 87.2493 42.5355 87.2493 42.3679 87.2436C42.339 87.2436 42.3101 87.2436 42.2754 87.2378C38.7437 86.829 36.0849 85.5507 34.3798 83.4261C33.5937 82.4472 33.4781 81.0653 34.1023 79.9829C35.5069 77.5473 37.7438 75.8545 40.7494 74.9505C41.3737 74.7605 42.0442 74.7086 42.6858 74.7892C45.9284 75.2096 48.7086 76.8333 50.9455 79.6201C51.6623 80.5126 51.9571 81.6642 51.7548 82.7812C51.5582 83.8694 50.8993 84.8195 49.9571 85.3838C47.8879 86.6275 45.5007 87.2493 42.8592 87.2493ZM42.4719 85.1592C44.888 85.2225 47.0382 84.6986 48.8763 83.5988C49.3098 83.3397 49.6046 82.9194 49.6913 82.4127C49.7837 81.8887 49.645 81.3417 49.3098 80.9214C47.3966 78.5376 45.1423 77.2076 42.4199 76.8563C42.0673 76.8103 41.6974 76.8391 41.3563 76.9427C38.842 77.697 37.0617 79.0271 35.9173 81.0135C35.7207 81.3532 35.7612 81.7966 36.0155 82.1133C37.3796 83.8176 39.4894 84.8137 42.4719 85.1592Z" fill="#0D325A"/>
<path d="M18.2769 161.958C1.10993 159.097 5.47391 138.051 16.8896 143.044C13.4851 128.896 32.2185 130.301 29.103 142.278C40.5592 130.699 45.9347 158.59 31.2359 161.952H18.2769V161.958Z" fill="#EE89FF"/>
<path d="M31.2531 162.108H18.2594C12.4851 161.146 8.42166 157.939 7.10958 153.31C6.07494 149.648 7.01132 145.767 9.45052 143.654C11.3811 141.984 13.9417 141.685 16.6872 142.802C15.7797 138.737 16.6699 135.46 19.138 133.79C21.3518 132.293 24.4961 132.374 26.7851 133.98C29.1549 135.645 30.0855 138.483 29.3688 141.823C32.4322 138.915 34.7443 139.07 36.1662 139.744C39.0794 141.12 40.7845 145.83 40.2238 150.943C39.5822 156.793 36.2356 160.962 31.2704 162.096L31.2531 162.108ZM18.2941 161.814H31.2184C36.0448 160.703 39.3048 156.626 39.929 150.914C40.4666 146.003 38.7961 141.316 36.0332 140.009C34.0391 139.065 31.675 139.888 29.2069 142.381L28.8255 142.767L28.9642 142.243C29.8543 138.817 28.9989 135.892 26.6174 134.222C24.4268 132.679 21.4153 132.604 19.2998 134.032C16.878 135.668 16.0514 138.938 17.034 143.009L17.1034 143.291L16.8317 143.176C14.092 141.978 11.5371 142.226 9.63549 143.873C7.28298 145.911 6.37551 149.671 7.38702 153.229C8.66443 157.738 12.6411 160.87 18.2941 161.814Z" fill="#0D325A"/>
<g opacity="0.3">
<path d="M7.05737 152.493C7.91283 156.673 11.3347 160.801 18.2766 161.959H31.2356C41.686 159.564 41.9924 144.789 37.1775 140.591C38.4318 146.608 36.2238 155.003 28.5709 156.759H15.6119C11.6988 156.109 8.90123 154.508 7.05737 152.493Z" fill="#0D325A"/>
</g>
<g opacity="0.6">
<path d="M31.189 144.939C34.2987 141.795 36.9633 141.559 38.8996 142.958C37.4199 139.889 34.738 138.34 31.3161 140.471C31.6398 141.737 31.6398 143.229 31.189 144.939Z" fill="white"/>
</g>
<g opacity="0.6">
<path d="M10.3345 158.308C6.46187 151.457 10.9993 142.204 18.9816 145.699C16.6638 136.083 24.5825 133.653 28.9118 136.843C26.1663 130.302 14.1032 131.459 16.895 143.044C7.80863 139.071 3.18454 151.589 10.3345 158.308Z" fill="white"/>
</g>
<path d="M31.2359 163.001H18.2769C18.2191 163.001 18.1613 162.995 18.1035 162.99C11.9708 161.965 7.64725 158.527 6.23691 153.553C5.10401 149.562 6.15599 145.313 8.84952 142.981C10.6934 141.386 13.017 140.879 15.5371 141.49C15.0689 137.741 16.1556 134.724 18.6237 133.054C21.138 131.356 24.7044 131.436 27.2938 133.256C29.4151 134.742 30.5191 137.033 30.496 139.751C33.0913 138.018 35.1606 138.288 36.542 138.939C39.7904 140.476 41.7094 145.566 41.1083 151.048C40.4205 157.295 36.8195 161.758 31.4613 162.978C31.3919 162.995 31.311 163.001 31.2359 163.001ZM18.3694 160.917H31.1145C35.4958 159.863 38.4552 156.098 39.0332 150.818C39.5246 146.344 38.0391 141.95 35.6519 140.822C33.6115 139.855 31.3688 141.484 29.8544 143.016C29.5192 143.35 29.0048 143.424 28.5944 143.188C28.184 142.958 27.9759 142.474 28.0973 142.019C28.8892 138.979 28.1609 136.4 26.1031 134.955C24.2073 133.624 21.6236 133.55 19.8144 134.776C17.6931 136.21 17.0168 139.06 17.9185 142.803C18.011 143.188 17.878 143.591 17.5717 143.845C17.2654 144.098 16.8434 144.161 16.4793 144C14.0458 142.935 11.8841 143.125 10.2367 144.553C8.17324 146.338 7.36403 149.81 8.25995 152.988C9.42753 157.128 13.1152 160.019 18.3694 160.917Z" fill="#0D325A"/>
<g opacity="0.15">
<path d="M93.082 46.6389C98.7233 53.2835 100.244 62.1795 104.607 58.5059C108.971 54.8324 107.937 46.4604 102.295 39.8158C96.6541 33.1712 88.5446 30.7644 84.1748 34.438C79.8166 38.1115 87.4406 39.9943 93.082 46.6389Z" fill="white"/>
</g>
<g opacity="0.15">
<path d="M99.5617 67.892C98.7871 70.3391 99.0761 72.6134 101.088 73.2468C103.099 73.8802 105.359 72.4061 106.139 69.959C106.914 67.5119 105.908 65.013 103.897 64.3797C101.879 63.7463 100.336 65.4391 99.5617 67.892Z" fill="white"/>
</g>
<path d="M27.9812 84.5261L30.5361 87.5029C30.6979 87.6872 30.6748 87.9693 30.484 88.1305C30.3338 88.2572 30.1199 88.2687 29.958 88.1708L26.6171 86.1095C26.1201 85.8043 25.964 85.1537 26.2761 84.6585C26.5825 84.1633 27.2356 84.0079 27.7327 84.3188C27.831 84.3764 27.9119 84.4512 27.9812 84.5261Z" fill="#0D325A"/>
<path d="M67.0487 86.841L64.5055 89.1845C64.3205 89.3515 64.0373 89.3399 63.8697 89.1614C63.7367 89.0175 63.7194 88.816 63.8003 88.6547L65.384 85.5858C65.6499 85.0676 66.2915 84.8603 66.8175 85.1252C67.3377 85.39 67.5458 86.0291 67.2799 86.5531C67.2106 86.6568 67.1354 86.7604 67.0487 86.841Z" fill="#0D325A"/>
<g opacity="0.3">
<path d="M80.5978 111.185C81.3145 120.231 80.0371 126.881 77.1182 132.87L78.6037 135.927L82.8174 130.129C82.8174 130.129 77.1239 134.24 83.2104 130.129C89.2969 126.018 88.6032 117.542 88.6032 117.542C88.6032 117.542 84.8635 112.942 80.5978 111.185Z" fill="#0D325A"/>
</g>
<g opacity="0.3">
<path d="M16.4736 81.6293C16.4736 81.6293 23.271 85.2165 27.4674 90.2201C29.1321 92.2008 32.184 92.218 33.814 90.2085C35.3226 88.343 36.548 86.2068 38.964 86.2068L36.6404 84.18C33.5885 84.4564 30.4731 84.8422 27.3056 85.3143C25.9819 84.4794 24.7392 83.7367 23.5947 83.1148C20.9128 81.6638 18.7915 80.8923 17.5141 81.1629L17.2771 81.2262L16.4736 81.6293Z" fill="#0D325A"/>
</g>
<g opacity="0.3">
<path d="M40.7151 85.4925C40.7151 85.4925 45.6918 92.4423 56.8011 88.1181C59.2461 88.8897 61.3848 89.8858 63.1708 91.1525L65.9337 86.575C65.9337 86.575 56.3907 82.7115 50.2465 83.7306C49.6685 84.4388 48.8997 84.9743 47.9865 85.3543L40.7151 85.4925Z" fill="#0D325A"/>
</g>
<g opacity="0.3">
<path d="M71.633 82.038C71.633 82.038 75.841 84.7039 69.0146 92.0912C73.1127 91.3197 76.4248 90.1854 77.6155 88.078C76.9739 83.2586 75.5115 80.1321 71.633 82.038Z" fill="#0D325A"/>
</g>
<g opacity="0.3">
<path d="M37.1768 140.596L39.6449 144.707C49.893 145.738 60.2972 144.644 70.8286 141.615C76.6318 142.865 83.094 144.771 77.1231 134.239C79.8918 126.599 81.805 119.016 80.6952 111.605V111.599C78.5161 110.626 76.0942 109.999 73.5105 109.809C63.7653 108.657 57.7424 105.272 55.176 101.811C55.1587 102.03 54.413 113.269 69.3026 115.883C69.3026 115.883 72.4007 125.43 69.3026 131.597C69.3026 131.597 74.4296 135.339 69.8055 137.729C65.1814 140.113 37.1768 140.596 37.1768 140.596Z" fill="#0D325A"/>
</g>
<path d="M92.3247 161.861C113.59 158.705 108.18 135.495 94.0471 141.005C98.2666 125.407 75.0595 126.956 78.9206 140.165C64.7304 127.4 58.0717 158.152 76.2791 161.861" fill="#EE89FF"/>
<path d="M92.3424 162.004L92.302 161.716C99.3595 160.669 104.307 157.191 105.868 152.164C106.995 148.537 106.099 144.69 103.585 142.358C101.174 140.124 97.8046 139.693 94.0938 141.138L93.8221 141.241L93.8973 140.965C95.481 135.109 93.0418 132.386 91.4465 131.292C88.6721 129.38 84.4121 129.49 81.551 131.551C78.921 133.439 78.0135 136.56 79.054 140.124L79.1985 140.614L78.817 140.268C74.6726 136.543 71.6554 136.9 69.8578 137.856C66.5689 139.606 64.7424 144.731 65.5169 150.039C66.4071 156.154 70.4416 160.519 76.3026 161.716L76.2448 162.004C70.2566 160.784 66.1412 156.327 65.2279 150.086C64.4361 144.656 66.3261 139.41 69.7191 137.602C71.5456 136.629 74.5628 136.238 78.6493 139.733C77.7823 136.244 78.7649 133.192 81.3833 131.315C84.3428 129.19 88.7472 129.075 91.6199 131.05C93.2557 132.173 95.7411 134.925 94.2614 140.769C97.926 139.428 101.388 139.923 103.793 142.151C106.388 144.558 107.313 148.525 106.151 152.256C104.55 157.387 99.5213 160.939 92.3424 162.004Z" fill="#0D325A"/>
<g opacity="0.3">
<path d="M65.8291 152.187C67.1065 156.649 70.3954 160.668 76.2738 161.866H92.3193C108.429 159.477 109.232 145.577 102.527 141.374C103.209 146.953 99.3133 153.817 88.4293 155.435H72.3837C69.6671 154.876 67.4996 153.713 65.8291 152.187Z" fill="#0D325A"/>
</g>
<g opacity="0.6">
<path d="M96.4175 143.994C100.209 142.52 103.371 143.107 105.562 144.823C104.105 141.771 101.03 139.71 96.9261 140.251C96.9493 141.368 96.7874 142.612 96.4175 143.994Z" fill="white"/>
</g>
<g opacity="0.6">
<path d="M69.6208 158.526C64.0488 148.933 70.4878 133.433 81.2851 143.152C78.6378 134.089 88.7299 130.52 93.9666 134.205C90.7702 126.351 75.7593 129.339 78.921 140.164C66.8926 129.345 60.2744 149.785 69.6208 158.526Z" fill="white"/>
</g>
<path d="M92.3256 162.902H76.28C76.2106 162.902 76.1413 162.896 76.0719 162.879C69.6964 161.583 65.3151 156.845 64.3441 150.211C63.5002 144.419 65.5868 138.782 69.3034 136.807C70.7831 136.018 73.6385 135.252 77.4476 137.705C77.3262 134.786 78.5053 132.27 80.8578 130.583C84.112 128.245 88.9615 128.13 92.129 130.312C94.8804 132.207 96.0422 135.483 95.441 139.467C98.8802 138.627 102.077 139.329 104.406 141.488C107.256 144.125 108.279 148.455 107.013 152.515C105.308 157.99 100.013 161.768 92.4816 162.885C92.4296 162.902 92.3776 162.902 92.3256 162.902ZM76.384 160.817H92.2446C98.9091 159.81 103.556 156.562 105.007 151.899C106.036 148.599 105.238 145.11 102.973 143.014C100.828 141.028 97.7936 140.659 94.4237 141.972C94.0538 142.116 93.6377 142.041 93.3429 141.776C93.0481 141.511 92.9267 141.108 93.0307 140.728C94.1001 136.778 93.3544 133.692 90.9326 132.022C88.4529 130.318 84.6438 130.422 82.0717 132.27C79.7365 133.945 78.9735 136.646 79.9099 139.865C80.0428 140.314 79.8579 140.792 79.459 141.039C79.0602 141.287 78.5516 141.241 78.199 140.93C75.228 138.258 72.4825 137.463 70.2687 138.644C67.3497 140.193 65.685 145.035 66.396 149.906C66.8122 152.653 68.5809 159.176 76.384 160.817Z" fill="#0D325A"/>
<g opacity="0.3">
<path d="M24.5016 96.4796C31.6863 97.6197 34.1255 100.833 28.1373 107.708C28.1373 107.708 22.3861 113.581 12.5137 111.819L12.7102 107.805C25.964 106.976 31.5649 102.001 24.5016 96.4796Z" fill="#0D325A"/>
</g>
<path d="M12.5244 7.2262L6.11425 11.1416L9.62278 12.4198C10.0678 12.581 10.3048 13.0705 10.1603 13.5196L9.25863 16.2488C9.10835 16.7094 8.61126 16.957 8.14885 16.8131L0.894813 14.4927C0.247441 14.2854 -0.128267 13.6117 0.0393566 12.9553L0.663608 10.5082C0.75031 10.18 0.958394 9.8921 1.25318 9.71937L8.51878 5.42398L3.99295 4.11119C3.50742 3.973 3.23576 3.45479 3.40916 2.97688L4.25884 0.587359C4.42068 0.126728 4.93511 -0.109346 5.39174 0.0576331L12.9174 2.79839C13.5879 3.04022 13.9521 3.77147 13.7382 4.4509L13.1024 6.48919C13.0099 6.79436 12.8018 7.05922 12.5244 7.2262Z" fill="#92A9B8"/>
<path d="M25.0399 22.8136L21.1383 26.5504L23.8029 26.9132C24.1439 26.9593 24.3867 27.2644 24.352 27.6041L24.1382 29.6655C24.1035 30.0109 23.7914 30.2643 23.4446 30.2297L17.9823 29.7115C17.491 29.6655 17.1269 29.2451 17.1385 28.7615L17.1963 26.942C17.202 26.6944 17.3119 26.4641 17.491 26.2971L21.9359 22.1572L18.5546 21.9384C18.1904 21.9153 17.9188 21.5871 17.965 21.2302L18.1962 19.4164C18.2425 19.0652 18.5604 18.8234 18.9129 18.8694L24.6295 19.641C25.1381 19.7101 25.5081 20.1649 25.4618 20.6774L25.3289 22.209C25.3115 22.4336 25.2075 22.6524 25.0399 22.8136Z" fill="#92A9B8"/>
<path d="M8.13212 35.675L3.91264 37.2642L5.83742 38.41C6.08018 38.5539 6.16688 38.8706 6.02816 39.1182L5.19005 40.6268C5.05132 40.8801 4.72764 40.9722 4.47331 40.8341L0.456137 38.6576C0.0977699 38.4618 -0.0467329 38.0242 0.12667 37.6499L0.774043 36.2738C0.860744 36.0896 1.01681 35.9456 1.21333 35.8765L5.98192 34.1549L3.46179 32.8824C3.19013 32.7442 3.09187 32.4103 3.24215 32.1454L4.0109 30.8326C4.16119 30.5793 4.48487 30.4929 4.7392 30.6484L8.86619 33.107C9.23612 33.3258 9.36329 33.7922 9.16098 34.1722L8.55985 35.3007C8.46737 35.4735 8.31709 35.6059 8.13212 35.675Z" fill="#92A9B8"/>
</g>
<defs>
<clipPath id="clip0_20_52941">
<rect width="141" height="163" fill="white"/>
</clipPath>
</defs>
</svg>
