<svg width="244" height="63" viewBox="0 0 244 63" fill="none"
    xmlns="http://www.w3.org/2000/svg">
    <path d="M39.08 48.0593L38.4079 43.7752L37.7368 39.4917L40.1192 41.4355C43.0449 37.0124 43.2109 30.7827 40.0719 25.5285C39.7629 24.9993 39.4206 24.4876 39.0433 24.0095C38.8719 23.7542 38.6318 23.4645 38.3573 23.1569C36.6257 21.1622 34.5002 19.6956 32.2049 18.8265L35.6275 14.7276L33.6546 12.3055C38.5381 13.9227 42.8918 17.2307 45.7389 21.9903C50.267 29.5647 49.7605 38.7307 45.1924 45.5961L48.0039 47.915L43.5329 47.9864L39.08 48.0593Z" fill="#DF1F26"/>
    <path d="M4.88111 36.2409C3.7616 27.7585 7.65969 19.0338 15.4836 14.3848C19.4039 12.0437 23.771 11.0668 28.0193 11.3026L27.9479 8.48631L30.7426 11.6073L33.537 14.7287L30.8854 17.8206L28.2326 20.9115L28.1619 18.0101C24.9585 17.7225 21.6363 18.391 18.6569 20.1683C13.1789 23.4328 10.4086 29.4598 11.0986 35.3484L5.58253 34.3965L4.88111 36.2409Z" fill="#1D65B1"/>
    <path d="M7.85105 44.7213C7.40505 43.9708 7.01038 43.2201 6.65052 42.4353L4.048 44.0418L5.26081 40.0134L6.47371 35.9841L10.4994 36.7832L14.5258 37.5817L11.9573 39.1537C12.249 39.8024 12.575 40.4333 12.9522 41.0645C17.5664 48.7586 27.2464 51.4648 34.5566 47.1237C35.1043 46.7986 35.618 46.4398 36.0971 46.0637L37.3334 50.0566L41.2222 50.2929C40.3147 51.0618 39.3215 51.7624 38.2604 52.3949C27.7663 58.6672 14.1456 55.2302 7.85105 44.7213Z" fill="white"/>
    <path d="M83.8964 48.3639L75.8605 48.37L68.5498 37.4671L66.1741 37.4693L66.1827 48.3783L59.6298 48.3836L59.606 18.638L70.1607 18.6289C71.6118 18.6274 72.887 18.7231 73.9555 18.9324C75.0397 19.1411 76.0445 19.5754 76.9537 20.2189C77.8955 20.8945 78.6449 21.764 79.188 22.8109C79.747 23.8585 80.0197 25.1798 80.0203 26.7906C80.0221 29.0625 79.5771 30.9163 78.6696 32.3345C77.7622 33.7536 76.5518 34.8824 75.0373 35.7215L83.8964 48.3639ZM73.2768 27.7466C73.2761 27.0053 73.1488 26.3615 72.8927 25.8136C72.6378 25.2823 72.2217 24.8633 71.6322 24.574C71.2173 24.3812 70.7544 24.252 70.2605 24.2044C69.7506 24.1562 69.1288 24.1247 68.3788 24.1254L66.1792 24.1273L66.1849 32.1358L68.0669 32.1343C68.9911 32.1332 69.7564 32.0687 70.3948 31.9392C71.0316 31.8093 71.5739 31.5348 72.0205 31.1321C72.4341 30.7612 72.753 30.3096 72.9596 29.7937C73.1826 29.2618 73.2778 28.5844 73.2768 27.7466Z" fill="white"/>
    <path d="M108.945 48.3427L102.538 48.3479L92.3139 27.6176L92.3311 48.356L86.2452 48.3608L86.2208 18.6148L94.3831 18.6087L102.85 35.65L102.837 18.6026L108.922 18.5966L108.945 48.3427Z" fill="white"/>
    <path d="M122.857 48.3313C120.751 48.3328 118.895 48.1115 117.306 47.6813C115.718 47.2517 114.229 46.7103 112.858 46.0574L112.852 39.0672L113.487 39.0673C114.859 40.3107 116.398 41.2832 118.054 41.9522C119.726 42.6205 121.332 42.9552 122.904 42.9531C123.305 42.9529 123.823 42.9045 124.474 42.8241C125.11 42.7277 125.645 42.5839 126.03 42.3763C126.514 42.1522 126.915 41.8485 127.249 41.4339C127.583 41.034 127.75 40.5074 127.748 39.8375C127.749 39.1032 127.481 38.497 126.928 38.0341C126.393 37.5722 125.741 37.2372 124.988 37.0305C124.051 36.7604 123.048 36.5222 121.978 36.2832C120.908 36.0444 119.922 35.7588 119.002 35.4077C116.878 34.6115 115.338 33.5281 114.418 32.172C113.498 30.8164 113.028 29.1093 113.027 27.0668C113.024 24.3056 114.109 22.0707 116.298 20.361C118.47 18.652 121.194 17.8038 124.454 17.8007C126.092 17.7997 127.715 17.9741 129.337 18.3236C130.958 18.6737 132.413 19.1514 133.685 19.7726L133.69 26.4914L133.072 26.4916C132.051 25.5504 130.796 24.7695 129.325 24.1175C127.853 23.4641 126.331 23.1462 124.776 23.1472C124.175 23.1477 123.64 23.1961 123.155 23.2763C122.67 23.3722 122.169 23.5482 121.634 23.8197C121.199 24.0279 120.832 24.347 120.515 24.7621C120.197 25.1775 120.047 25.6404 120.047 26.1509C120.048 26.9012 120.3 27.5074 120.801 27.9379C121.303 28.3843 122.274 28.7819 123.695 29.1323C124.615 29.3554 125.518 29.5776 126.37 29.7845C127.222 29.991 128.143 30.2778 129.113 30.6603C131.02 31.3927 132.441 32.381 133.378 33.6405C134.299 34.8845 134.768 36.5275 134.771 38.5703C134.773 41.4911 133.704 43.8543 131.549 45.6429C129.428 47.4489 126.519 48.3282 122.857 48.3313Z" fill="white"/>
    <path d="M148.268 48.3114L139.45 18.5722L147.521 18.5655L152.097 38.0537L152.346 38.0531L157.54 18.5576L164.121 18.552L169.345 38.0831L169.595 38.0832L174.153 18.5439L182.209 18.5372L173.455 48.2905L166.417 48.2959L160.958 30.2615L160.722 30.2609L155.291 48.3047L148.268 48.3114Z" fill="#DF1F26"/>
    <path d="M185.251 48.2817L185.227 18.535L206.297 18.518L206.301 24.3563L192.535 24.3679L192.54 30.4685L205.229 30.458L205.234 36.3115L192.545 36.3219L192.55 42.4366L206.316 42.425L206.322 48.2637L185.251 48.2817Z" fill="#DF1F26"/>
    <path d="M210.896 48.2604L210.871 18.5144L223.471 18.5041C225.734 18.5021 227.627 18.8158 229.153 19.4434C230.688 20.0722 231.839 20.9523 232.607 22.084C233.386 23.2169 233.775 24.5282 233.776 26.0197C233.777 27.1524 233.537 28.1651 233.056 29.0558C232.574 29.9372 231.911 30.669 231.066 31.2501C230.22 31.8322 229.241 32.2393 228.13 32.4735L228.13 32.7634C229.35 32.8212 230.477 33.1443 231.51 33.7339C232.554 34.3242 233.39 35.1462 234.02 36.2009C234.651 37.246 234.966 38.4854 234.967 39.9187C234.969 41.5161 234.557 42.9445 233.732 44.2042C232.907 45.4536 231.712 46.4424 230.149 47.1703C228.585 47.8879 226.687 48.2477 224.455 48.2498L210.896 48.2604ZM218.194 42.4589L222.709 42.4555C224.292 42.4543 225.458 42.1576 226.204 41.5664C226.962 40.9753 227.339 40.1517 227.339 39.0964C227.338 38.3313 227.156 37.6736 226.792 37.1216C226.427 36.5603 225.91 36.1296 225.241 35.8304C224.571 35.5208 223.771 35.3664 222.835 35.3675L218.188 35.3711L218.194 42.4589ZM218.184 30.7381L222.227 30.7343C223.024 30.734 223.732 30.6026 224.351 30.3405C224.972 30.0785 225.453 29.7007 225.797 29.2063C226.15 28.7124 226.327 28.1171 226.327 27.4198C226.326 26.4221 225.966 25.6388 225.247 25.0675C224.529 24.4968 223.56 24.2116 222.34 24.213L218.179 24.2168L218.184 30.7381Z" fill="#DF1F26"/>
</svg>
