<svg width="20" height="20" viewBox="0 0 20 20" fill="none" xmlns="http://www.w3.org/2000/svg">
<path d="M10 1.66666C5.40002 1.66666 1.66669 5.39999 1.66669 9.99999C1.66669 14.6 5.40002 18.3333 10 18.3333C14.6 18.3333 18.3334 14.6 18.3334 9.99999C18.3334 5.39999 14.6 1.66666 10 1.66666ZM10 16.6667C6.31669 16.6667 3.33335 13.6833 3.33335 9.99999C3.33335 6.31666 6.31669 3.33332 10 3.33332C13.6834 3.33332 16.6667 6.31666 16.6667 9.99999C16.6667 13.6833 13.6834 16.6667 10 16.6667Z" fill="#185AA4"/>
<path d="M9.99998 14.1667C12.3012 14.1667 14.1666 12.3012 14.1666 10C14.1666 7.69882 12.3012 5.83334 9.99998 5.83334C7.69879 5.83334 5.83331 7.69882 5.83331 10C5.83331 12.3012 7.69879 14.1667 9.99998 14.1667Z" fill="#185AA4"/>
</svg>
